<svg xmlns="http://www.w3.org/2000/svg" viewBox="0 0 900 700" font-family="Helvetica, Arial, sans-serif" font-size="12">
  <style>
    text { fill: #fff; }
    .title { font-size: 15px; font-weight: bold; }
    .label { font-size: 11px; font-weight: bold; }
    .small { font-size: 10px; }
    .tiny { font-size: 9px; fill: #aaa; }
    rect.box { fill: #111; stroke: #555; stroke-width: 1.5; }
    rect.inner { fill: #1a1a1a; stroke: #444; stroke-width: 1; }
    rect.slot { fill: #222; stroke: #666; stroke-width: 1; }
    line.sep { stroke: #333; stroke-width: 0.5; }
    line.arrow { stroke: #fff; stroke-width: 1.5; marker-end: url(#arrowhead); }
    line.dash { stroke: #888; stroke-width: 1; stroke-dasharray: 5,3; marker-end: url(#arrowgray); }
  </style>
  <defs>
    <marker id="arrowhead" markerWidth="8" markerHeight="6" refX="8" refY="3" orient="auto">
      <polygon points="0 0, 8 3, 0 6" fill="#fff"/>
    </marker>
    <marker id="arrowgray" markerWidth="8" markerHeight="6" refX="8" refY="3" orient="auto">
      <polygon points="0 0, 8 3, 0 6" fill="#888"/>
    </marker>
  </defs>

  <!-- Background -->
  <rect x="0" y="0" width="900" height="700" fill="#000"/>

  <!-- ════════ MultisigFactory ════════ -->
  <rect class="box" x="20" y="20" width="250" height="230" rx="5"/>
  <text class="title" x="145" y="44" text-anchor="middle">MultisigFactory</text>
  <line class="sep" x1="30" y1="52" x2="260" y2="52"/>
  <text class="small" x="35" y="72">implementation (immutable)</text>
  <line class="sep" x1="30" y1="80" x2="260" y2="80"/>
  <text class="label" x="35" y="100">create()</text>
  <text class="tiny" x="45" y="116">owners, delay, threshold,</text>
  <text class="tiny" x="45" y="129">executor, salt</text>
  <text class="tiny" x="45" y="148">PUSH0 minimal proxy clone</text>
  <text class="tiny" x="45" y="161">CREATE2 deterministic deploy</text>
  <text class="tiny" x="45" y="174">salt: sender-bound or open</text>
  <text class="tiny" x="45" y="190">atomic deploy + init</text>
  <text class="label" x="35" y="210">createWithCalls()</text>
  <text class="tiny" x="45" y="224">deploy + init + setup calls</text>
  <text class="tiny" x="45" y="237">factory as temp executor</text>

  <!-- Arrow: Factory → Multisig -->
  <line class="arrow" x1="270" y1="118" x2="345" y2="118"/>
  <text class="tiny" x="288" y="110">clone</text>

  <!-- ════════ Multisig ════════ -->
  <rect class="box" x="355" y="20" width="525" height="400" rx="5"/>
  <text class="title" x="618" y="44" text-anchor="middle">Multisig</text>
  <line class="sep" x1="365" y1="52" x2="870" y2="52"/>

  <!-- Core -->
  <rect class="inner" x="370" y="62" width="240" height="163" rx="4"/>
  <text class="label" x="380" y="80">Core</text>
  <text class="small" x="390" y="98">execute(target, val, data, sigs)</text>
  <text class="small" x="390" y="114">executeQueued(target, ..., nonce)</text>
  <text class="small" x="390" y="130">isValidSignature() [EIP-1271]</text>
  <text class="small" x="390" y="146">batch(targets[], vals[], datas[])</text>
  <text class="small" x="390" y="162">delegateCall(target, data)</text>
  <text class="small" x="390" y="178">DOMAIN_SEPARATOR() [EIP-712]</text>
  <text class="small" x="390" y="194">approve(hash, ok) / cancelQueued(hash)</text>
  <text class="small" x="390" y="210">getTransactionHash() / isOwner() / getOwners()</text>

  <!-- Admin -->
  <rect class="inner" x="625" y="62" width="240" height="135" rx="4"/>
  <text class="label" x="635" y="80">Admin (onlySelf)</text>
  <text class="small" x="645" y="98">addOwner(address)</text>
  <text class="small" x="645" y="114">removeOwner(prev, owner)</text>
  <text class="small" x="645" y="130">setThreshold(uint256)</text>
  <text class="small" x="645" y="146">setDelay(uint32)</text>
  <text class="small" x="645" y="162">setExecutor(address)</text>
  <text class="small" x="645" y="178">receive() / fallback()</text>

  <!-- Execute Flow -->
  <rect class="inner" x="370" y="240" width="495" height="170" rx="4"/>
  <text class="label" x="380" y="260">execute() + executeQueued() flow</text>

  <text class="small" x="390" y="278">1. pre-guard: executor addr starts 0x1111? &#x2192; call guard</text>
  <text class="small" x="390" y="296">2. msg.sender == executor?</text>
  <text class="tiny" x="410" y="312">YES &#x2192; skip sigs, skip delay &#x2192; immediate call</text>
  <text class="tiny" x="410" y="328">NO  &#x2192; verify threshold sigs (ascending ecrecover)</text>

  <text class="small" x="390" y="348">3. delay == 0?</text>
  <text class="tiny" x="410" y="364">YES &#x2192; target.call{value}(data)</text>
  <text class="tiny" x="410" y="380">NO  &#x2192; queue(hash, eta) &#x2192; executeQueued after eta (also guarded)</text>
  <text class="small" x="390" y="400">4. post-guard: executor addr ends 0x1111? &#x2192; call guard</text>

  <!-- ════════ EIP-7702 ════════ -->
  <rect class="box" x="20" y="290" width="250" height="105" rx="5"/>
  <text class="title" x="145" y="314" text-anchor="middle">EIP-7702 Path</text>
  <line class="sep" x1="30" y1="322" x2="260" y2="322"/>
  <text class="tiny" x="35" y="341">EOA signs SET_CODE_TX</text>
  <text class="tiny" x="35" y="356">delegates to Multisig implementation</text>
  <text class="tiny" x="35" y="371">calls init() on self</text>
  <text class="tiny" x="35" y="386">(msg.sender == address(this))</text>

  <!-- Arrow: 7702 → Multisig -->
  <line class="dash" x1="270" y1="325" x2="345" y2="280"/>
  <text class="tiny" x="282" y="295">delegate</text>

  <!-- ════════ Storage Layout ════════ -->
  <rect class="box" x="20" y="440" width="860" height="250" rx="5"/>
  <text class="title" x="450" y="464" text-anchor="middle">Storage Layout &#x2014; Slot 0 (1 SLOAD + 1 SSTORE per execute)</text>
  <line class="sep" x1="30" y1="472" x2="870" y2="472"/>

  <!-- Slot 0 -->
  <text class="label" x="35" y="498">Slot 0</text>
  <text class="tiny" x="35" y="512">256 bits</text>

  <rect class="slot" x="100" y="484" width="250" height="34" rx="3"/>
  <text class="small" x="225" y="505" text-anchor="middle">address executor (160 bits)</text>

  <rect class="slot" x="354" y="484" width="60" height="34" rx="3"/>
  <text class="small" x="384" y="505" text-anchor="middle">u16 cnt</text>

  <rect class="slot" x="418" y="484" width="60" height="34" rx="3"/>
  <text class="small" x="448" y="505" text-anchor="middle">u16 thresh</text>

  <rect class="slot" x="482" y="484" width="120" height="34" rx="3"/>
  <text class="small" x="542" y="505" text-anchor="middle">uint32 nonce</text>

  <rect class="slot" x="606" y="484" width="120" height="34" rx="3"/>
  <text class="small" x="666" y="505" text-anchor="middle">uint32 delay</text>

  <!-- Bit position labels -->
  <text class="tiny" x="100" y="536">255</text>
  <text class="tiny" x="330" y="536">96</text>
  <text class="tiny" x="354" y="536">95</text>
  <text class="tiny" x="398" y="536">80</text>
  <text class="tiny" x="418" y="536">79</text>
  <text class="tiny" x="462" y="536">64</text>
  <text class="tiny" x="482" y="536">63</text>
  <text class="tiny" x="586" y="536">32</text>
  <text class="tiny" x="606" y="536">31</text>
  <text class="tiny" x="716" y="536">0</text>

  <!-- Slot 1 -->
  <text class="label" x="35" y="570">Slot 1</text>
  <rect class="slot" x="100" y="556" width="662" height="24" rx="3"/>
  <text class="small" x="431" y="572" text-anchor="middle">mapping(address =&gt; address) _owners (sorted linked list)</text>

  <!-- Slot 2 -->
  <text class="label" x="35" y="602">Slot 2</text>
  <rect class="slot" x="100" y="588" width="662" height="24" rx="3"/>
  <text class="small" x="431" y="604" text-anchor="middle">mapping(bytes32 =&gt; uint256) queued</text>

  <!-- Slot 3 -->
  <text class="label" x="35" y="634">Slot 3</text>
  <rect class="slot" x="100" y="620" width="662" height="24" rx="3"/>
  <text class="small" x="431" y="636" text-anchor="middle">mapping(address =&gt; mapping(bytes32 =&gt; bool)) approved</text>

</svg>
